<svg width="19" height="19" viewBox="0 0 19 19" fill="none" xmlns="http://www.w3.org/2000/svg">
<path d="M6.4884 9.98501C4.10364 8.20203 2.40416 6.24085 1.4762 5.13831C1.18895 4.79701 1.09482 4.54724 1.03823 4.10727C0.84444 2.60077 0.747552 1.84752 1.18929 1.36126C1.63103 0.875 2.41221 0.875 3.97457 0.875H15.0255C16.5878 0.875 17.369 0.875 17.8107 1.36126C18.2525 1.84752 18.1556 2.60077 17.9618 4.10728C17.9052 4.54725 17.8111 4.79702 17.5237 5.13831C16.5945 6.24226 14.8917 8.20692 12.5021 9.9921C12.2859 10.1537 12.1434 10.4168 12.1169 10.7088C11.8802 13.3257 11.6619 14.759 11.526 15.484C11.3067 16.6546 9.64682 17.3589 8.75825 17.9873C8.22935 18.3613 7.58746 17.9161 7.51892 17.3371C7.38825 16.2333 7.14213 13.9911 6.87347 10.7088C6.84934 10.4142 6.70633 10.1479 6.4884 9.98501Z" stroke="#292D32" stroke-width="1.4375" stroke-linecap="round" stroke-linejoin="round"/>
</svg>
