<svg width="24" height="25" viewBox="0 0 24 25" fill="none" xmlns="http://www.w3.org/2000/svg">
<path d="M18 15.5V9.5C18 6.67157 18 5.25736 17.1213 4.37868C16.2426 3.5 14.8284 3.5 12 3.5H8C5.17157 3.5 3.75736 3.5 2.87868 4.37868C2 5.25736 2 6.67157 2 9.5V15.5C2 18.3284 2 19.7426 2.87868 20.6213C3.75736 21.5 5.17157 21.5 8 21.5H20" stroke="#CECECE" stroke-width="1.5" stroke-linecap="round" stroke-linejoin="round"/>
<path d="M6 8.5H14" stroke="#CECECE" stroke-width="1.5" stroke-linecap="round" stroke-linejoin="round"/>
<path d="M6 12.5H14" stroke="#CECECE" stroke-width="1.5" stroke-linecap="round" stroke-linejoin="round"/>
<path d="M6 16.5H10" stroke="#CECECE" stroke-width="1.5" stroke-linecap="round" stroke-linejoin="round"/>
<path d="M18 8.5H19C20.4142 8.5 21.1213 8.5 21.5607 8.93934C22 9.37868 22 10.0858 22 11.5V19.5C22 20.6046 21.1046 21.5 20 21.5C18.8954 21.5 18 20.6046 18 19.5V8.5Z" stroke="#CECECE" stroke-width="1.5" stroke-linecap="round" stroke-linejoin="round"/>
</svg>
